<svg width="479" height="288" viewBox="0 0 479 288" fill="none" xmlns="http://www.w3.org/2000/svg">
<path d="M330.983 251.405C303.219 251.405 273.049 247.279 243.083 239.346C206.024 229.535 172.045 214.727 144.82 196.521L145.626 195.315C172.726 213.432 206.548 228.173 243.454 237.943C276.805 246.773 310.405 250.864 340.612 249.784L340.664 251.234C337.474 251.349 334.247 251.406 330.983 251.405Z" fill="#090814"/>
<path d="M326.828 62.9686C317.811 60.0326 308.538 57.2996 299.262 54.8436C245.89 40.7136 193.425 35.6976 147.537 40.3436L147.391 38.9006C193.45 34.2446 246.091 39.2706 299.634 53.4466C308.934 55.9096 318.234 58.6466 327.278 61.5946L326.828 62.9686Z" fill="#090814"/>
<path d="M82.2628 175.847C60.0178 153.947 50.6218 131.102 55.8068 111.518C62.4578 86.3858 92.0178 69.0088 136.902 63.8428L137.068 65.2848C92.8078 70.3788 63.7028 87.3648 57.2128 111.885C52.1668 130.944 61.4268 153.291 83.2838 174.81L82.2628 175.847Z" fill="#090814"/>
<path d="M383.957 242.406L383.492 241.032C408.322 232.632 423.853 219.113 428.405 201.92C434.191 180.065 421.621 154.703 393.012 130.508C364.257 106.189 322.791 86.008 276.25 73.69L276.62 72.29C323.362 84.665 365.03 104.948 393.946 129.403C423.007 153.981 435.746 179.867 429.805 202.294C425.126 219.975 409.271 233.846 383.957 242.406Z" fill="#090814"/>
<path d="M137.041 246.477C82.4869 222.277 40.4489 190.891 18.6719 158.088L19.8809 157.288C41.5079 189.866 83.3249 221.069 137.628 245.154L137.041 246.477Z" fill="#090814"/>
<path d="M364.286 256.021C369.441 256.021 373.619 251.843 373.619 246.688C373.619 241.534 369.441 237.355 364.286 237.355C359.132 237.355 354.953 241.534 354.953 246.688C354.953 251.843 359.132 256.021 364.286 256.021Z" fill="#BAD6EB"/>
<path d="M163.862 203.292L163.719 203.268C163.92 203.143 164.109 203.001 164.285 202.842L163.862 203.292Z" fill="#BAD6EB"/>
<path d="M448.907 59.8201L449.05 59.7961C448.849 59.6716 448.66 59.529 448.484 59.3701L448.907 59.8201Z" fill="#BAD6EB"/>
<path d="M104.284 19.0887L104.141 19.0647C104.342 18.9402 104.531 18.7975 104.707 18.6387L104.284 19.0887Z" fill="#BAD6EB"/>
<path d="M154.638 100.175C154.09 100.175 153.542 100.132 152.999 100.047L92.0904 90.4912C90.6915 90.2716 89.3506 89.7742 88.1469 89.0284C86.9432 88.2825 85.901 87.3032 85.0817 86.1483C84.2623 84.9934 83.6824 83.6861 83.3761 82.3036C83.0699 80.921 83.0434 79.4912 83.2984 78.0982L96.0054 8.69824C96.494 5.99095 98.0183 3.58058 100.255 1.97853C102.491 0.376485 105.264 -0.291164 107.984 0.117241L167.901 8.94924C169.297 9.15515 170.637 9.6371 171.843 10.3669C173.05 11.0968 174.099 12.0598 174.93 13.1998C175.76 14.3398 176.354 15.6339 176.679 17.0064C177.003 18.3788 177.05 19.8022 176.818 21.1932L165.103 91.3142C164.682 93.7881 163.4 96.0337 161.485 97.655C159.569 99.2764 157.143 100.169 154.633 100.176L154.638 100.175Z" fill="#BAD6EB"/>
<path d="M157.033 39.1482C156.845 39.1481 156.656 39.1303 156.471 39.0952L108.714 30.1862C107.92 30.038 107.217 29.5805 106.76 28.9142C106.304 28.2479 106.13 27.4273 106.278 26.6332C106.426 25.839 106.884 25.1361 107.55 24.6793C108.217 24.2225 109.037 24.049 109.831 24.1972L157.588 33.1062C158.334 33.2458 159.001 33.6587 159.459 34.2642C159.916 34.8697 160.131 35.6241 160.062 36.3799C159.993 37.1356 159.644 37.8382 159.083 38.3502C158.523 38.8623 157.792 39.1468 157.033 39.1482Z" fill="#090814"/>
<path d="M152.527 55.0917C152.388 55.092 152.249 55.0827 152.111 55.0637L106.324 48.8287C105.528 48.7144 104.81 48.2901 104.325 47.6482C103.841 47.0062 103.63 46.1988 103.739 45.4021C103.848 44.6053 104.267 43.8838 104.905 43.395C105.544 42.9062 106.35 42.6897 107.147 42.7927L152.934 49.0277C153.7 49.1304 154.399 49.5205 154.888 50.1189C155.377 50.7174 155.62 51.4794 155.569 52.2506C155.517 53.0219 155.174 53.7446 154.609 54.2723C154.044 54.8 153.3 55.0933 152.527 55.0927V55.0917Z" fill="#090814"/>
<path d="M134.144 71.4576C133.979 71.4573 133.816 71.4439 133.654 71.4176L102.708 66.4096C102.313 66.3457 101.934 66.2046 101.594 65.9944C101.254 65.7842 100.958 65.509 100.724 65.1845C100.251 64.5293 100.058 63.7131 100.188 62.9156C100.317 62.1181 100.757 61.4046 101.413 60.932C102.068 60.4594 102.884 60.2665 103.682 60.3956L134.628 65.4036C135.382 65.5271 136.063 65.9298 136.534 66.5319C137.006 67.1339 137.234 67.8912 137.173 68.6535C137.112 69.4157 136.767 70.1272 136.205 70.6467C135.644 71.1661 134.908 71.4556 134.144 71.4576Z" fill="#090814"/>
<path d="M140.157 287.303C137.692 287.296 135.305 286.43 133.407 284.856C131.51 283.281 130.219 281.095 129.757 278.673L116.576 209.366C116.052 206.663 116.603 203.863 118.112 201.56C119.62 199.257 121.968 197.634 124.655 197.036L183.724 183.656C185.1 183.344 186.523 183.31 187.912 183.555C189.301 183.8 190.627 184.319 191.813 185.083C192.998 185.846 194.02 186.839 194.818 188.002C195.615 189.165 196.173 190.475 196.458 191.856L210.83 261.48C211.386 264.217 210.844 267.063 209.321 269.404C207.798 271.745 205.415 273.393 202.687 273.994L142.431 287.057C141.684 287.22 140.922 287.302 140.157 287.303Z" fill="#BAD6EB"/>
<path d="M135.621 224.872C134.862 224.871 134.13 224.587 133.57 224.075C133.01 223.563 132.661 222.86 132.591 222.104C132.521 221.349 132.736 220.594 133.194 219.988C133.651 219.383 134.319 218.97 135.065 218.83L182.819 209.909C183.212 209.836 183.616 209.84 184.007 209.923C184.399 210.006 184.77 210.165 185.1 210.391C185.43 210.617 185.712 210.906 185.931 211.241C186.149 211.576 186.299 211.951 186.373 212.344C186.446 212.737 186.441 213.141 186.359 213.533C186.276 213.924 186.117 214.296 185.891 214.626C185.665 214.956 185.376 215.238 185.041 215.456C184.706 215.675 184.331 215.825 183.938 215.898L136.185 224.82C135.999 224.855 135.811 224.873 135.622 224.873L135.621 224.872Z" fill="#090814"/>
<path d="M139.97 243.15C139.224 243.148 138.505 242.873 137.948 242.376C137.392 241.88 137.036 241.196 136.95 240.455C136.864 239.714 137.052 238.967 137.48 238.356C137.908 237.745 138.545 237.312 139.27 237.139L184.223 226.439C184.614 226.341 185.021 226.322 185.419 226.382C185.818 226.443 186.2 226.581 186.545 226.791C186.889 227 187.189 227.276 187.426 227.602C187.663 227.927 187.833 228.297 187.927 228.689C188.02 229.081 188.034 229.488 187.97 229.886C187.905 230.283 187.761 230.664 187.548 231.006C187.335 231.348 187.056 231.645 186.728 231.878C186.399 232.112 186.027 232.278 185.634 232.367L140.681 243.067C140.449 243.122 140.212 243.15 139.973 243.15H139.97Z" fill="#090814"/>
<path d="M143.016 260.834C142.264 260.832 141.539 260.552 140.981 260.048C140.423 259.544 140.071 258.851 139.993 258.103C139.915 257.355 140.117 256.604 140.559 255.996C141.001 255.388 141.653 254.964 142.388 254.807L173.056 248.312C173.846 248.145 174.671 248.298 175.348 248.739C176.026 249.179 176.5 249.87 176.668 250.661C176.835 251.451 176.682 252.276 176.241 252.953C175.801 253.63 175.109 254.105 174.319 254.272L143.651 260.767C143.442 260.812 143.23 260.834 143.016 260.834Z" fill="#090814"/>
<path d="M456.958 177.578C458.768 177.572 460.52 176.939 461.916 175.788C463.312 174.637 464.267 173.038 464.618 171.263L478.271 100.841C478.487 99.7253 478.456 98.5764 478.182 97.474C477.908 96.3716 477.396 95.3425 476.683 94.4584C475.97 93.5744 475.072 92.8569 474.052 92.356C473.033 91.8551 471.916 91.5829 470.781 91.5585L404.805 90.1405C402.958 90.0907 401.153 90.7029 399.717 91.8665C398.281 93.0302 397.309 94.6687 396.974 96.4865L384.034 164.78C383.828 165.872 383.857 166.995 384.12 168.075C384.383 169.155 384.873 170.166 385.559 171.041C386.245 171.916 387.109 172.634 388.095 173.148C389.081 173.661 390.165 173.958 391.274 174.019L456.537 177.566C456.678 177.574 456.818 177.578 456.958 177.578Z" fill="#334EAC"/>
<path d="M449.886 132.729C449.7 134.047 449.397 135.345 448.98 136.609C448.323 138.207 447.457 139.71 446.404 141.079C444.384 143.724 442.501 144.552 440.681 147.162C440.409 147.316 440.135 147.452 439.853 147.583C439.295 147.841 439.012 149.45 438.429 149.652C438.429 149.652 438.421 149.65 438.417 149.658C438.21 149.919 438.069 150.226 438.006 150.553L438.004 150.561C437.504 152.129 436.808 155.362 436.263 157.257C436.193 157.486 436.129 157.696 436.065 157.88C435.9 158.378 435.758 158.692 435.645 158.716C434.249 159.042 433.784 158.262 432.305 158.247C431.511 158.241 427.448 158.321 426.638 158.207C424.342 157.884 423.21 156.927 421.47 155.827C421.348 155.753 421.226 155.676 421.098 155.597C421.05 155.571 421.012 155.544 420.966 155.518C420.465 155.218 420.761 149.442 420.564 147.212C420.563 147.211 420.563 147.209 420.563 147.207C420.564 147.205 420.564 147.203 420.565 147.202C420.524 146.738 420.462 146.431 420.366 146.357L420.295 146.301C419.991 146.066 419.698 145.813 419.413 145.553C417.949 142.102 414.684 138.556 413.554 133.349C413.29 131.449 413.286 129.522 413.543 127.622C413.846 125.208 414.626 122.878 415.837 120.769C417.049 118.659 418.668 116.811 420.6 115.333C422.532 113.854 424.739 112.775 427.092 112.157C429.445 111.539 431.897 111.395 434.306 111.734C436.715 112.072 439.033 112.887 441.125 114.129C443.216 115.372 445.04 117.017 446.49 118.971C447.94 120.925 448.986 123.147 449.569 125.509C450.152 127.871 450.26 130.325 449.886 132.729Z" fill="#BAD6EB"/>
<path d="M448.98 136.614C448.323 138.211 447.457 139.713 446.405 141.082C444.385 143.727 442.501 144.555 440.681 147.165C439.003 149.822 437.795 152.749 437.112 155.817C437.042 156.076 437.07 156.386 436.997 156.64C436.832 157.203 436.949 157.114 436.527 157.584C436.355 157.651 436.276 157.511 436.257 157.26C436.262 156.631 436.342 156.005 436.497 155.396C436.832 153.738 437.335 152.119 438 150.565L438.001 150.557C438.136 150.246 438.276 149.948 438.413 149.661C440.865 144.673 444.366 142.749 446.185 140.213C455.742 126.926 444.058 108.953 427.928 112.366C427.064 112.548 427.082 112.731 427.036 112.746C425.863 112.968 424.717 113.313 423.617 113.777C416.167 117.448 412.44 126.262 414.446 134.242C415.532 138.559 418.688 141.351 420.288 146.308C420.382 146.596 420.472 146.896 420.558 147.209C420.557 147.21 420.557 147.212 420.557 147.214C420.556 147.216 420.556 147.218 420.557 147.22C421.252 149.958 421.434 152.801 421.095 155.605C421.088 155.656 421.089 155.705 421.083 155.751C421.215 155.78 421.343 155.807 421.468 155.835C423.413 156.282 424.644 156.777 425.353 156.529L426.069 156.705C426.263 157.076 430.373 157.234 431.021 157.317L431.185 157.34C432.798 157.609 434.424 157.79 436.056 157.884C436.14 157.888 436.225 157.889 436.309 157.89C436.414 157.93 436.499 158.008 436.547 158.109C436.596 158.209 436.604 158.325 436.57 158.431C436.332 159.151 435.892 159.788 435.303 160.266C434.48 160.603 422.061 159.089 420.994 158.088C420.684 157.798 420.48 157.412 420.418 156.991C420.355 156.571 420.437 156.142 420.65 155.774C420.643 155.667 420.229 155.311 420.225 155.209C420.18 153.915 420.892 150.754 419.88 146.93C419.757 146.461 419.6 146.002 419.41 145.556C417.943 142.105 414.679 138.559 413.552 133.349C412.971 130.556 413.037 127.667 413.744 124.903C415.381 118.022 422.359 112.007 429.352 111.222C432.565 110.831 435.824 111.281 438.81 112.528C441.796 113.776 444.406 115.778 446.385 118.338C448.364 120.898 449.644 123.929 450.099 127.133C450.554 130.337 450.169 133.604 448.98 136.614Z" fill="#090814"/>
<path d="M435.438 160.673C436.456 161.956 435.775 162.246 435.044 163.473C434.373 163.221 422.443 162.314 420.884 161.483C420.635 161.34 420.427 161.136 420.278 160.89C420.13 160.644 420.047 160.364 420.036 160.077C420.026 159.79 420.088 159.505 420.218 159.249C420.348 158.993 420.54 158.774 420.778 158.613C425.572 159.841 430.487 160.532 435.434 160.672L435.438 160.673Z" fill="#090814"/>
<path d="M435.637 164.06C435.955 165.154 434.981 165.66 434.466 166.415L433.62 166.463L420.628 164.47C419.868 164.209 419.525 163.041 419.42 162.285C419.42 162.185 419.45 162.087 419.507 162.005C419.564 161.923 419.644 161.86 419.738 161.824L420.859 161.647C425.111 162.599 429.412 163.316 433.743 163.794C434.054 163.666 434.393 163.624 434.726 163.671C435.059 163.718 435.373 163.852 435.637 164.06Z" fill="#090814"/>
<path d="M426.849 149.159L426.504 149.11L427.287 143.536L422.87 129.33L423.2 129.228L427.644 143.501L426.849 149.159Z" fill="#090814"/>
<path d="M435.54 102.246C436.3 101.869 435.534 107.435 435.294 107.586C434.384 108.157 435.284 102.372 435.54 102.246Z" fill="#BAD6EB"/>
<path d="M429.87 101.953C430.47 101.676 430.992 107.123 430.872 107.384C430.189 108.87 429.591 102.082 429.87 101.953Z" fill="#BAD6EB"/>
<path d="M441.071 103.523C441.749 103.442 439.928 108.411 439.765 108.631C438.215 110.708 440.703 103.572 441.071 103.523Z" fill="#BAD6EB"/>
<path d="M432.157 149.913L432.748 143.676L432.757 143.653L438.024 130.399L438.344 130.527L433.087 143.758L432.5 149.946L432.157 149.913Z" fill="#090814"/>
<path d="M343.177 76.7236C348.331 76.7236 352.51 72.5451 352.51 67.3906C352.51 62.2361 348.331 58.0576 343.177 58.0576C338.022 58.0576 333.844 62.2361 333.844 67.3906C333.844 72.5451 338.022 76.7236 343.177 76.7236Z" fill="#BAD6EB"/>
<path d="M263.294 79.2764C268.448 79.2764 272.627 75.0978 272.627 69.9434C272.627 64.7889 268.448 60.6104 263.294 60.6104C258.139 60.6104 253.961 64.7889 253.961 69.9434C253.961 75.0978 258.139 79.2764 263.294 79.2764Z" fill="#334EAC"/>
<path d="M94.1846 192.724C99.339 192.724 103.518 188.545 103.518 183.391C103.518 178.236 99.339 174.058 94.1846 174.058C89.0301 174.058 84.8516 178.236 84.8516 183.391C84.8516 188.545 89.0301 192.724 94.1846 192.724Z" fill="#334EAC"/>
<path d="M9.333 154.799C14.4875 154.799 18.666 150.62 18.666 145.466C18.666 140.311 14.4875 136.133 9.333 136.133C4.17853 136.133 0 140.311 0 145.466C0 150.62 4.17853 154.799 9.333 154.799Z" fill="#BAD6EB"/>
</svg>
