<svg width="577" height="494" viewBox="0 0 577 494" fill="none" xmlns="http://www.w3.org/2000/svg">
<g clip-path="url(#clip0_4373_12276)">
<path d="M169.422 488.35C178.677 480.53 184.298 468.177 182.824 456.151C181.35 444.125 172.219 433.069 160.375 430.515C148.531 427.962 135.03 435.031 131.432 446.601C129.452 424.295 127.171 401.054 115.312 382.058C104.574 364.858 85.9745 352.551 65.8175 350.349C45.6604 348.147 24.4376 356.463 11.8664 372.373C-0.70481 388.283 -3.78281 411.412 5.02174 429.678C11.5077 443.133 23.4573 453.147 35.9774 461.294C76.4343 487.398 124.957 498.013 172.618 491.187" fill="#BAD6EB"/>
<path d="M31.7956 356.925C48.4277 370.472 63.6858 385.623 77.3494 402.16C98.7328 427.951 116.037 456.867 128.658 487.901C129.582 490.165 125.905 491.151 124.992 488.912C116.966 469.291 107.036 450.503 95.3445 432.818C77.1134 405.193 54.7778 380.508 29.1072 359.613C27.2092 358.068 29.9133 355.392 31.7956 356.925Z" fill="#BAD6EB"/>
<path d="M175.815 488.35C166.561 480.53 160.939 468.177 162.413 456.151C163.888 444.125 173.018 433.069 184.862 430.515C196.706 427.962 210.208 435.031 213.805 446.601C215.785 424.295 218.066 401.054 229.925 382.058C240.664 364.858 259.263 352.551 279.42 350.349C299.577 348.147 320.8 356.463 333.371 372.373C345.942 388.283 349.02 411.412 340.215 429.678C333.729 443.133 321.78 453.147 309.26 461.294C268.803 487.398 220.28 498.013 172.619 491.187" fill="#BAD6EB"/>
<path d="M313.44 356.925C296.807 370.472 281.549 385.623 267.886 402.16C246.502 427.951 229.199 456.867 216.577 487.901C215.653 490.165 219.33 491.151 220.243 488.912C240.894 438.475 273.86 394.02 316.128 359.613C318.026 358.068 315.322 355.392 313.44 356.925Z" fill="#BAD6EB"/>
<path d="M203.273 222C220.394 222 234.273 208.121 234.273 191C234.273 173.879 220.394 160 203.273 160C186.153 160 172.273 173.879 172.273 191C172.273 208.121 186.153 222 203.273 222Z" fill="#BAD6EB"/>
<path d="M107.692 84.1367H321.273V95.822H134.958C124.003 95.822 113.156 97.9797 103.035 102.172C92.9139 106.364 83.7179 112.509 75.9717 120.255C68.2256 128.001 62.081 137.197 57.8889 147.318C53.6967 157.438 51.539 168.286 51.539 179.24V311.999H28.1685C27.1355 311.999 26.1448 311.589 25.4143 310.858C24.6838 310.128 24.2735 309.137 24.2734 308.104V167.555C24.2734 156.6 26.4311 145.753 30.6233 135.632C34.8155 125.511 40.96 116.315 48.7062 108.569C56.4523 100.823 65.6483 94.6787 75.7691 90.4865C85.8899 86.2944 96.7373 84.1367 107.692 84.1367Z" fill="#BAD6EB"/>
<path d="M148.773 489V311.5H200.773V489C200.772 490.193 200.298 491.337 199.454 492.18C198.61 493.024 197.466 493.499 196.273 493.5H153.273C152.08 493.499 150.937 493.024 150.093 492.18C149.249 491.337 148.775 490.193 148.773 489Z" fill="#090814"/>
<path d="M13.2734 308V163.666C13.2994 140.688 22.4385 118.66 38.6858 102.412C54.933 86.1652 76.9616 77.026 99.9387 77H320.273V313H18.2734C16.9478 312.998 15.6769 312.471 14.7396 311.534C13.8022 310.597 13.275 309.326 13.2734 308ZM318.273 79H99.9387C77.4919 79.0254 55.9717 87.9537 40.0993 103.826C24.227 119.698 15.2988 141.219 15.2734 163.666V308C15.2743 308.795 15.5907 309.558 16.1531 310.12C16.7155 310.683 17.4781 310.999 18.2734 311H318.273V79Z" fill="#090814"/>
<path d="M203.273 207C198.501 206.995 193.926 205.096 190.551 201.722C187.177 198.347 185.279 193.772 185.273 189V60C185.273 59.2046 184.956 58.4421 184.394 57.8796C183.831 57.3172 183.069 57.0009 182.273 57H112.273C110.948 56.9985 109.677 56.4712 108.74 55.5338C107.802 54.5965 107.275 53.3256 107.273 52V5C107.275 3.67439 107.802 2.40351 108.74 1.46616C109.677 0.528807 110.948 0.00153504 112.273 0H216.273C217.599 0.00151655 218.87 0.528787 219.807 1.46614C220.745 2.40349 221.272 3.67438 221.273 5V189C221.268 193.772 219.37 198.347 215.995 201.722C212.621 205.096 208.046 206.995 203.273 207Z" fill="#334EAC"/>
<path d="M328.273 75.0001C343.359 74.9685 357.839 80.9309 368.529 91.5758C379.219 102.221 385.242 116.676 385.273 131.762V296.071H497.273C501.773 296.062 506.091 297.84 509.279 301.015C512.468 304.19 514.264 308.501 514.273 313H271.273V131.762C271.305 116.676 277.328 102.221 288.018 91.5758C298.707 80.931 313.188 74.9685 328.273 75.0001Z" fill="#090814"/>
<path d="M314.595 168.567L326.398 217.323L557.279 161.432L545.476 112.675C545.334 112.079 545.043 111.529 544.631 111.075C544.219 110.622 543.698 110.279 543.119 110.08C542.691 109.93 542.238 109.862 541.785 109.88L408.325 40.7777C407.543 40.3784 406.644 40.2717 405.79 40.477C404.937 40.6822 404.184 41.1859 403.669 41.897L339.349 131.591L315.101 165.414C315.057 165.473 315.027 165.541 315.011 165.613C314.996 165.685 314.996 165.76 315.012 165.832C314.519 166.653 314.369 167.636 314.595 168.567Z" fill="#BAD6EB"/>
<path d="M315.012 165.832C315.024 165.895 315.048 165.956 315.082 166.01C315.117 166.064 315.162 166.111 315.215 166.148C315.278 166.191 315.349 166.22 315.423 166.235C315.498 166.25 315.575 166.249 315.649 166.233C315.77 166.201 315.875 166.128 315.948 166.026L316.031 165.911L317.293 164.145L340.222 132.181L404.523 42.5075C404.89 41.9994 405.427 41.6396 406.037 41.4935C406.646 41.3474 407.288 41.4247 407.845 41.7113L540.271 110.278L541.459 110.895C541.507 110.915 541.556 110.932 541.606 110.946C541.696 110.93 541.787 110.921 541.878 110.92C542.002 110.879 542.106 110.791 542.167 110.676C542.2 110.615 542.22 110.548 542.226 110.48C542.233 110.411 542.225 110.342 542.205 110.276C542.185 110.21 542.152 110.149 542.108 110.096C542.064 110.043 542.01 109.999 541.949 109.967L541.785 109.88L408.325 40.7777C407.543 40.3784 406.644 40.2717 405.79 40.477C404.937 40.6822 404.184 41.1859 403.669 41.897L339.349 131.591L315.101 165.414C315.057 165.473 315.027 165.541 315.011 165.613C314.996 165.685 314.996 165.76 315.012 165.832Z" fill="#090814"/>
<path d="M384.359 170.805L389.498 171.375L427.641 175.6L452.927 178.399L454.42 178.565L485.972 153.921L487.181 152.977L494.633 147.156L521.147 126.45L521.306 124.996L530.737 39.8816C530.865 38.7096 530.524 37.5344 529.787 36.6137C529.051 35.693 527.979 35.1019 526.807 34.97L400.952 21.0283C399.78 20.9003 398.605 21.242 397.684 21.9784C396.764 22.7148 396.172 23.7861 396.04 24.9575L389.39 84.9951L385.701 118.281L382.401 148.059L380.871 161.889L380.424 165.894C380.297 167.067 380.64 168.242 381.377 169.162C382.115 170.083 383.187 170.673 384.359 170.805Z" fill="#7096D1"/>
<path d="M418.943 96.1982L473.46 102.236L492.793 104.377C493.647 104.471 494.51 104.397 495.335 104.158C496.16 103.918 496.93 103.519 497.6 102.982C498.27 102.445 498.829 101.782 499.243 101.029C499.657 100.277 499.918 99.4505 500.013 98.5969C500.107 97.7433 500.033 96.8795 499.794 96.0547C499.554 95.2299 499.155 94.4603 498.618 93.7899C498.081 93.1194 497.418 92.5613 496.665 92.1473C495.913 91.7333 495.086 91.4716 494.233 91.377L470.186 88.7138L420.387 83.1919C418.662 83.0014 416.933 83.5035 415.579 84.5876C414.225 85.6718 413.356 87.2494 413.165 88.9736C412.974 90.6977 413.475 92.4273 414.558 93.7821C415.642 95.1368 417.219 96.0059 418.943 96.1982Z" fill="#BAD6EB"/>
<path d="M415.84 120.313C415.981 120.338 416.121 120.364 416.264 120.377L479.55 127.388L490.116 128.561C491.84 128.752 493.57 128.25 494.925 127.165C496.279 126.081 497.147 124.503 497.338 122.778C497.528 121.053 497.026 119.324 495.942 117.969C494.857 116.615 493.279 115.747 491.554 115.556L476.276 113.866L426.146 108.311L417.709 107.376C416.022 107.188 414.328 107.663 412.985 108.702C411.642 109.74 410.755 111.26 410.513 112.94C410.27 114.62 410.69 116.329 411.684 117.705C412.678 119.081 414.169 120.016 415.84 120.313Z" fill="#BAD6EB"/>
<path d="M408.675 141.697C409.194 142.558 409.904 143.287 410.75 143.83C411.596 144.372 412.557 144.711 413.555 144.822L439.494 147.695L485.691 152.813L485.701 152.81L487.179 152.975L494.631 147.155C494.677 146.713 494.677 146.267 494.632 145.825C494.475 144.34 493.816 142.954 492.763 141.895C491.711 140.836 490.329 140.167 488.845 140.001L482.428 139.288L456.971 136.471L438.654 134.439L414.994 131.817C413.781 131.683 412.555 131.89 411.455 132.416C410.354 132.942 409.422 133.766 408.765 134.794C408.108 135.821 407.751 137.012 407.735 138.232C407.719 139.452 408.045 140.652 408.675 141.697Z" fill="#BAD6EB"/>
<path d="M445.107 66.7189L458.672 68.2213L464.663 68.8866L473.713 69.8882C475.438 70.079 477.167 69.5769 478.522 68.4923C479.876 67.4077 480.744 65.8296 480.935 64.105C481.125 62.3804 480.623 60.6507 479.539 59.2964C478.454 57.942 476.876 57.074 475.152 56.8832L446.552 53.7178C444.828 53.5262 443.099 54.0273 441.744 55.1109C440.389 56.1944 439.521 57.7718 439.329 59.4958C439.137 61.2199 439.639 62.9495 440.722 64.3041C441.806 65.6586 443.383 66.5273 445.107 66.7189Z" fill="#BAD6EB"/>
<path d="M334.195 102.932L350.732 171.246L378.333 176.494L403.865 181.355L431.259 186.567L440.012 188.233C440.524 188.33 441.051 188.317 441.558 188.194C442.065 188.071 442.54 187.842 442.951 187.521L449.973 182.037L454.419 178.565L485.972 153.92L465.91 71.0466C465.711 70.2221 465.279 69.4724 464.665 68.8875C464.127 68.37 463.467 67.9964 462.746 67.8012C462.025 67.6059 461.266 67.5953 460.54 67.7703L337.471 97.563C336.325 97.8412 335.336 98.5629 334.722 99.5696C334.107 100.576 333.918 101.786 334.195 102.932Z" fill="#334EAC"/>
<path d="M372.112 157.279C372.522 158.964 373.583 160.418 375.063 161.321C376.544 162.224 378.322 162.503 380.008 162.097L452.222 144.615C453.907 144.205 455.36 143.143 456.263 141.663C457.167 140.183 457.446 138.405 457.04 136.719C457.022 136.636 456.998 136.553 456.97 136.473C456.509 134.847 455.436 133.464 453.978 132.612C452.519 131.759 450.787 131.505 449.145 131.901L376.93 149.383C375.245 149.793 373.791 150.854 372.888 152.334C371.985 153.815 371.706 155.593 372.112 157.279Z" fill="#BAD6EB"/>
<path d="M378.328 176.495L403.86 181.355L457.945 168.263C459.631 167.855 461.085 166.793 461.989 165.313C462.893 163.832 463.171 162.053 462.763 160.367C462.355 158.681 461.293 157.226 459.813 156.323C458.332 155.419 456.553 155.141 454.867 155.549L382.653 173.03C381.143 173.393 379.814 174.284 378.905 175.542C378.686 175.843 378.493 176.161 378.328 176.495Z" fill="#BAD6EB"/>
<path d="M431.258 186.568L440.011 188.233C440.523 188.33 441.05 188.317 441.557 188.194C442.064 188.071 442.539 187.842 442.95 187.522L449.972 182.037L431.258 186.568Z" fill="#BAD6EB"/>
<path d="M386.668 120.646C387.077 122.331 388.139 123.785 389.619 124.688C391.099 125.592 392.878 125.871 394.564 125.464L422.534 118.693C424.219 118.283 425.672 117.221 426.575 115.741C427.478 114.261 427.758 112.483 427.352 110.797C427.134 109.891 426.723 109.043 426.147 108.311C425.373 107.321 424.331 106.575 423.144 106.161C421.958 105.748 420.678 105.685 419.456 105.979L391.486 112.75C389.8 113.159 388.345 114.22 387.442 115.701C386.538 117.181 386.26 118.96 386.668 120.646Z" fill="#BAD6EB"/>
<path d="M403.858 181.354L431.256 186.568L440.007 188.234C440.519 188.33 441.045 188.316 441.552 188.193C442.058 188.071 442.533 187.842 442.945 187.523L449.972 182.037L447.506 182.634L442.3 186.695C442.006 186.923 441.667 187.086 441.305 187.174C440.944 187.261 440.567 187.271 440.201 187.203L433.722 185.971L406.324 180.757L403.858 181.354ZM485.696 152.815L485.963 153.917L487.178 152.972L485.696 152.815ZM403.858 181.354L431.256 186.568L440.007 188.234C440.519 188.33 441.045 188.316 441.552 188.193C442.058 188.071 442.533 187.842 442.945 187.523L449.972 182.037L447.506 182.634L442.3 186.695C442.006 186.923 441.667 187.086 441.305 187.174C440.944 187.261 440.567 187.271 440.201 187.203L433.722 185.971L406.324 180.757L403.858 181.354ZM403.858 181.354L431.256 186.568L440.007 188.234C440.519 188.33 441.045 188.316 441.552 188.193C442.058 188.071 442.533 187.842 442.945 187.523L449.972 182.037L447.506 182.634L442.3 186.695C442.006 186.923 441.667 187.086 441.305 187.174C440.944 187.261 440.567 187.271 440.201 187.203L433.722 185.971L406.324 180.757L403.858 181.354ZM314.595 168.567L345.511 296.277C345.741 297.221 346.335 298.035 347.164 298.541C347.993 299.047 348.989 299.203 349.933 298.976L573.694 244.808C574.638 244.578 575.452 243.984 575.958 243.155C576.464 242.326 576.62 241.33 576.392 240.386L545.476 112.676C545.334 112.079 545.043 111.529 544.631 111.075C544.219 110.622 543.698 110.279 543.119 110.081C542.691 109.93 542.238 109.862 541.785 109.88C541.256 109.895 540.738 110.031 540.271 110.278C540.055 110.381 539.851 110.507 539.663 110.655L521.299 124.995L494.629 145.828L485.694 152.807L485.696 152.815L485.688 152.817L452.923 178.395L447.506 182.634L442.3 186.695C442.006 186.923 441.667 187.086 441.305 187.174C440.944 187.261 440.567 187.271 440.201 187.203L433.722 185.971L406.324 180.757L378.902 175.541L318.841 164.112C318.329 164.01 317.801 164.022 317.293 164.145C316.61 164.312 315.99 164.672 315.505 165.181C315.32 165.381 315.155 165.599 315.012 165.832C314.519 166.653 314.369 167.636 314.595 168.567ZM403.858 181.354L431.256 186.568L440.007 188.234C440.519 188.33 441.045 188.316 441.552 188.193C442.058 188.071 442.533 187.842 442.945 187.523L449.972 182.037L447.506 182.634L442.3 186.695C442.006 186.923 441.667 187.086 441.305 187.174C440.944 187.261 440.567 187.271 440.201 187.203L433.722 185.971L406.324 180.757L403.858 181.354ZM403.858 181.354L431.256 186.568L440.007 188.234C440.519 188.33 441.045 188.316 441.552 188.193C442.058 188.071 442.533 187.842 442.945 187.523L449.972 182.037L447.506 182.634L442.3 186.695C442.006 186.923 441.667 187.086 441.305 187.174C440.944 187.261 440.567 187.271 440.201 187.203L433.722 185.971L406.324 180.757L403.858 181.354ZM403.858 181.354L431.256 186.568L440.007 188.234C440.519 188.33 441.045 188.316 441.552 188.193C442.058 188.071 442.533 187.842 442.945 187.523L449.972 182.037L447.506 182.634L442.3 186.695C442.006 186.923 441.667 187.086 441.305 187.174C440.944 187.261 440.567 187.271 440.201 187.203L433.722 185.971L406.324 180.757L403.858 181.354Z" fill="#BAD6EB"/>
<path d="M403.858 181.354L431.256 186.568L440.007 188.234C440.519 188.33 441.045 188.316 441.552 188.193C442.058 188.071 442.533 187.842 442.945 187.523L449.972 182.037L447.506 182.634L442.3 186.695C442.006 186.923 441.667 187.086 441.305 187.174C440.944 187.261 440.567 187.271 440.201 187.203L433.722 185.971L406.324 180.757L403.858 181.354ZM485.696 152.815L485.963 153.917L487.178 152.972L485.696 152.815ZM403.858 181.354L431.256 186.568L440.007 188.234C440.519 188.33 441.045 188.316 441.552 188.193C442.058 188.071 442.533 187.842 442.945 187.523L449.972 182.037L447.506 182.634L442.3 186.695C442.006 186.923 441.667 187.086 441.305 187.174C440.944 187.261 440.567 187.271 440.201 187.203L433.722 185.971L406.324 180.757L403.858 181.354ZM403.858 181.354L431.256 186.568L440.007 188.234C440.519 188.33 441.045 188.316 441.552 188.193C442.058 188.071 442.533 187.842 442.945 187.523L449.972 182.037L447.506 182.634L442.3 186.695C442.006 186.923 441.667 187.086 441.305 187.174C440.944 187.261 440.567 187.271 440.201 187.203L433.722 185.971L406.324 180.757L403.858 181.354ZM316.031 165.911L316.167 166.013C316.19 165.975 316.229 165.942 316.259 165.903C316.562 165.588 316.939 165.352 317.355 165.218C317.771 165.084 318.214 165.056 318.644 165.135L378.33 176.489L403.858 181.354L431.256 186.568L440.007 188.234C440.519 188.33 441.045 188.316 441.552 188.193C442.058 188.071 442.533 187.842 442.945 187.523L449.972 182.037L447.506 182.634L442.3 186.695C442.006 186.923 441.667 187.086 441.305 187.174C440.944 187.261 440.567 187.271 440.201 187.203L433.722 185.971L406.324 180.757L378.902 175.541L318.841 164.112C318.329 164.01 317.801 164.022 317.293 164.145L316.031 165.911ZM314.595 168.567L345.511 296.277C345.741 297.221 346.335 298.035 347.164 298.541C347.993 299.047 348.989 299.203 349.933 298.976L573.694 244.808C574.638 244.578 575.452 243.984 575.958 243.155C576.464 242.326 576.62 241.33 576.392 240.386L545.476 112.676C545.334 112.079 545.043 111.529 544.631 111.075C544.219 110.622 543.698 110.279 543.119 110.081C542.691 109.93 542.238 109.862 541.785 109.88C541.256 109.895 540.738 110.031 540.271 110.278C540.055 110.381 539.851 110.507 539.663 110.655L521.299 124.995L494.629 145.828L485.694 152.807L485.696 152.815L485.688 152.817L452.923 178.395L447.506 182.634L442.3 186.695C442.006 186.923 441.667 187.086 441.305 187.174C440.944 187.261 440.567 187.271 440.201 187.203L433.722 185.971L406.324 180.757L378.902 175.541L318.841 164.112C318.329 164.01 317.801 164.022 317.293 164.145C316.61 164.312 315.99 164.672 315.505 165.181C315.32 165.381 315.155 165.599 315.012 165.832C314.519 166.653 314.369 167.636 314.595 168.567ZM315.615 168.32C315.524 167.944 315.518 167.552 315.597 167.173C315.677 166.794 315.841 166.437 316.076 166.13C316.097 166.085 316.128 166.045 316.167 166.013C316.19 165.975 316.229 165.942 316.259 165.903C316.562 165.588 316.939 165.352 317.355 165.218C317.771 165.084 318.214 165.056 318.644 165.135L378.33 176.489L403.858 181.354L431.256 186.568L440.007 188.234C440.519 188.33 441.045 188.316 441.552 188.193C442.058 188.071 442.533 187.842 442.945 187.523L449.972 182.037L454.416 178.565L485.963 153.917L487.178 152.972L494.624 147.154L521.143 126.445L540.314 111.474C540.605 111.246 540.942 111.084 541.301 110.997C541.401 110.972 541.503 110.955 541.606 110.946C541.696 110.93 541.787 110.921 541.878 110.92C542.184 110.918 542.489 110.967 542.778 111.067C543.192 111.211 543.562 111.456 543.857 111.78C544.151 112.103 544.36 112.496 544.464 112.921L575.38 240.631C575.462 240.965 575.476 241.313 575.423 241.653C575.37 241.993 575.251 242.32 575.071 242.614C574.892 242.908 574.656 243.164 574.378 243.366C574.099 243.569 573.784 243.715 573.449 243.796L349.688 297.964C349.013 298.126 348.301 298.014 347.709 297.651C347.117 297.288 346.693 296.706 346.531 296.031L315.615 168.32ZM403.858 181.354L431.256 186.568L440.007 188.234C440.519 188.33 441.045 188.316 441.552 188.193C442.058 188.071 442.533 187.842 442.945 187.523L449.972 182.037L447.506 182.634L442.3 186.695C442.006 186.923 441.667 187.086 441.305 187.174C440.944 187.261 440.567 187.271 440.201 187.203L433.722 185.971L406.324 180.757L403.858 181.354ZM403.858 181.354L431.256 186.568L440.007 188.234C440.519 188.33 441.045 188.316 441.552 188.193C442.058 188.071 442.533 187.842 442.945 187.523L449.972 182.037L447.506 182.634L442.3 186.695C442.006 186.923 441.667 187.086 441.305 187.174C440.944 187.261 440.567 187.271 440.201 187.203L433.722 185.971L406.324 180.757L403.858 181.354ZM403.858 181.354L431.256 186.568L440.007 188.234C440.519 188.33 441.045 188.316 441.552 188.193C442.058 188.071 442.533 187.842 442.945 187.523L449.972 182.037L447.506 182.634L442.3 186.695C442.006 186.923 441.667 187.086 441.305 187.174C440.944 187.261 440.567 187.271 440.201 187.203L433.722 185.971L406.324 180.757L403.858 181.354Z" fill="#090814"/>
<path d="M515.382 219.717C514.878 217.624 515.225 215.417 516.346 213.579C517.467 211.742 519.272 210.424 521.363 209.915L549.605 203.079C551.694 202.581 553.896 202.931 555.728 204.053C557.56 205.176 558.873 206.978 559.378 209.066C559.884 211.154 559.541 213.357 558.425 215.193C557.309 217.029 555.511 218.348 553.425 218.861L525.184 225.697C523.091 226.202 520.884 225.855 519.046 224.734C517.209 223.613 515.891 221.808 515.382 219.717Z" fill="#334EAC"/>
<path d="M203.273 196C207.139 196 210.273 192.866 210.273 189C210.273 185.134 207.139 182 203.273 182C199.407 182 196.273 185.134 196.273 189C196.273 192.866 199.407 196 203.273 196Z" fill="#BAD6EB"/>
</g>
<defs>
<clipPath id="clip0_4373_12276">
<rect width="576.499" height="493.5" fill="white"/>
</clipPath>
</defs>
</svg>
