<svg width="835" height="220" viewBox="0 0 835 220" fill="none" xmlns="http://www.w3.org/2000/svg">
<path d="M16 39C24.8366 39 32 31.8366 32 23C32 14.1634 24.8366 7 16 7C7.16344 7 0 14.1634 0 23C0 31.8366 7.16344 39 16 39Z" fill="#FFF9F0"/>
<path d="M819 39C827.837 39 835 31.8366 835 23C835 14.1634 827.837 7 819 7C810.163 7 803 14.1634 803 23C803 31.8366 810.163 39 819 39Z" fill="#FFF9F0"/>
<path d="M824.001 22H654.883V24H824.001V22Z" fill="#FFF9F0"/>
<path d="M610.377 22H454.094V24H610.377V22Z" fill="#FFF9F0"/>
<path d="M409.591 22H251.984V24H409.591V22Z" fill="#FFF9F0"/>
<path d="M207.669 22H16V24H207.669V22Z" fill="#FFF9F0"/>
<path d="M235 50.5C230.55 50.5 226.2 49.1804 222.5 46.7081C218.8 44.2357 215.916 40.7217 214.213 36.6104C212.51 32.499 212.064 27.975 212.932 23.6105C213.801 19.2459 215.943 15.2368 219.09 12.0901C222.237 8.94341 226.246 6.80051 230.61 5.93235C234.975 5.06418 239.499 5.50974 243.61 7.21271C247.722 8.91568 251.236 11.7996 253.708 15.4997C256.18 19.1998 257.5 23.5499 257.5 28C257.493 33.9653 255.121 39.6844 250.902 43.9025C246.684 48.1206 240.965 50.4933 235 50.5Z" fill="#7096D1"/>
<path d="M230 46C225.451 46 221.004 44.6511 217.222 42.1238C213.44 39.5966 210.492 36.0045 208.751 31.8018C207.01 27.599 206.554 22.9745 207.442 18.5129C208.329 14.0514 210.52 9.95317 213.737 6.73656C216.953 3.51996 221.051 1.32941 225.513 0.441947C229.974 -0.445513 234.599 0.00996983 238.802 1.75079C243.004 3.4916 246.597 6.43958 249.124 10.2219C251.651 14.0042 253 18.4511 253 23C252.993 29.0979 250.568 34.944 246.256 39.2559C241.944 43.5677 236.098 45.9931 230 46ZM230 2.00002C225.847 2.00002 221.786 3.23164 218.333 5.53915C214.88 7.84666 212.188 11.1264 210.599 14.9637C209.009 18.8009 208.593 23.0233 209.404 27.0969C210.214 31.1705 212.214 34.9124 215.151 37.8493C218.088 40.7862 221.83 42.7862 225.903 43.5965C229.977 44.4068 234.199 43.9909 238.036 42.4015C241.874 40.812 245.153 38.1204 247.461 34.667C249.768 31.2136 251 27.1534 251 23C250.994 17.4324 248.779 12.0946 244.842 8.15771C240.905 4.2208 235.568 2.00629 230 2.00002Z" fill="#090814"/>
<path d="M229.503 30.0006C229.105 30.0006 228.723 29.8425 228.442 29.5612L219.942 21.0612C219.802 20.922 219.691 20.7567 219.615 20.5745C219.539 20.3924 219.5 20.1971 219.5 19.9998C219.5 19.8025 219.538 19.6071 219.614 19.4248C219.689 19.2425 219.8 19.0769 219.939 18.9374C220.079 18.7979 220.245 18.6873 220.427 18.6119C220.609 18.5365 220.805 18.4979 221.002 18.4981C221.199 18.4984 221.394 18.5375 221.577 18.6134C221.759 18.6892 221.924 18.8002 222.063 18.9401L229.503 26.3795L244.296 11.5856C244.578 11.3053 244.959 11.148 245.356 11.1484C245.753 11.1488 246.134 11.3068 246.415 11.5877C246.696 11.8686 246.854 12.2495 246.855 12.6468C246.855 13.0441 246.698 13.4253 246.417 13.7067L230.563 29.5612C230.282 29.8425 229.9 30.0006 229.503 30.0006Z" fill="#FFF9F0"/>
<path d="M437 50.5C432.55 50.5 428.2 49.1804 424.5 46.7081C420.8 44.2357 417.916 40.7217 416.213 36.6104C414.51 32.499 414.064 27.975 414.932 23.6105C415.801 19.2459 417.943 15.2368 421.09 12.0901C424.237 8.94341 428.246 6.80051 432.61 5.93235C436.975 5.06418 441.499 5.50974 445.61 7.21271C449.722 8.91568 453.236 11.7996 455.708 15.4997C458.18 19.1998 459.5 23.5499 459.5 28C459.493 33.9653 457.121 39.6844 452.902 43.9025C448.684 48.1206 442.965 50.4933 437 50.5Z" fill="#7096D1"/>
<path d="M432 46C427.451 46 423.004 44.6511 419.222 42.1238C415.44 39.5966 412.492 36.0045 410.751 31.8018C409.01 27.599 408.555 22.9745 409.442 18.5129C410.329 14.0514 412.52 9.95317 415.737 6.73656C418.953 3.51996 423.051 1.32941 427.513 0.441947C431.975 -0.445513 436.599 0.00996983 440.802 1.75079C445.004 3.4916 448.597 6.43958 451.124 10.2219C453.651 14.0042 455 18.4511 455 23C454.993 29.0979 452.568 34.944 448.256 39.2559C443.944 43.5677 438.098 45.9931 432 46ZM432 2.00002C427.847 2.00002 423.786 3.23164 420.333 5.53915C416.88 7.84666 414.188 11.1264 412.599 14.9637C411.009 18.8009 410.593 23.0233 411.404 27.0969C412.214 31.1705 414.214 34.9124 417.151 37.8493C420.088 40.7862 423.829 42.7862 427.903 43.5965C431.977 44.4068 436.199 43.9909 440.036 42.4015C443.874 40.812 447.153 38.1204 449.461 34.667C451.768 31.2136 453 27.1534 453 23C452.994 17.4324 450.779 12.0946 446.842 8.15771C442.905 4.2208 437.568 2.00629 432 2.00002Z" fill="#090814"/>
<path d="M431.503 30.0009C431.105 30.0008 430.723 29.8428 430.442 29.5615L421.942 21.0615C421.802 20.9223 421.691 20.7569 421.615 20.5748C421.539 20.3927 421.5 20.1973 421.5 20.0001C421.5 19.8028 421.538 19.6074 421.614 19.4251C421.689 19.2428 421.8 19.0771 421.939 18.9377C422.079 18.7982 422.245 18.6876 422.427 18.6122C422.609 18.5368 422.805 18.4981 423.002 18.4984C423.199 18.4986 423.394 18.5378 423.577 18.6136C423.759 18.6895 423.924 18.8005 424.063 18.9404L431.503 26.3798L446.296 11.5859C446.435 11.4462 446.601 11.3353 446.783 11.2596C446.965 11.1838 447.16 11.1447 447.357 11.1445C447.555 11.1443 447.75 11.183 447.932 11.2584C448.114 11.3338 448.28 11.4444 448.419 11.5838C448.559 11.7233 448.669 11.8889 448.745 12.0711C448.82 12.2533 448.859 12.4486 448.859 12.6458C448.859 12.8431 448.819 13.0383 448.744 13.2204C448.668 13.4025 448.557 13.5678 448.417 13.707L432.563 29.5615C432.282 29.8428 431.9 30.0009 431.503 30.0009Z" fill="#FFF9F0"/>
<path d="M638 50.5C633.55 50.5 629.2 49.1804 625.5 46.7081C621.8 44.2357 618.916 40.7217 617.213 36.6104C615.51 32.499 615.064 27.975 615.932 23.6105C616.801 19.2459 618.943 15.2368 622.09 12.0901C625.237 8.94341 629.246 6.80051 633.61 5.93235C637.975 5.06418 642.499 5.50974 646.61 7.21271C650.722 8.91568 654.236 11.7996 656.708 15.4997C659.18 19.1998 660.5 23.5499 660.5 28C660.493 33.9653 658.121 39.6844 653.902 43.9025C649.684 48.1206 643.965 50.4933 638 50.5Z" fill="#BAD6EB"/>
<path d="M633 46C628.451 46 624.004 44.6511 620.222 42.1238C616.44 39.5966 613.492 36.0045 611.751 31.8018C610.01 27.599 609.555 22.9745 610.442 18.5129C611.329 14.0514 613.52 9.95317 616.737 6.73656C619.953 3.51996 624.051 1.32941 628.513 0.441947C632.975 -0.445513 637.599 0.00996983 641.802 1.75079C646.004 3.4916 649.597 6.43958 652.124 10.2219C654.651 14.0042 656 18.4511 656 23C655.993 29.0979 653.568 34.944 649.256 39.2559C644.944 43.5677 639.098 45.9931 633 46ZM633 2.00002C628.847 2.00002 624.786 3.23164 621.333 5.53915C617.88 7.84666 615.188 11.1264 613.599 14.9637C612.009 18.8009 611.593 23.0233 612.404 27.0969C613.214 31.1705 615.214 34.9124 618.151 37.8493C621.088 40.7862 624.829 42.7862 628.903 43.5965C632.977 44.4068 637.199 43.9909 641.036 42.4015C644.874 40.812 648.153 38.1204 650.461 34.667C652.768 31.2136 654 27.1534 654 23C653.994 17.4324 651.779 12.0946 647.842 8.15771C643.905 4.2208 638.568 2.00629 633 2.00002Z" fill="#BAD6EB"/>
<path d="M618.57 139.516C614.12 139.516 609.77 138.196 606.07 135.724C602.37 133.251 599.486 129.737 597.783 125.626C596.08 121.515 595.634 116.991 596.503 112.626C597.371 108.262 599.514 104.252 602.66 101.106C605.807 97.959 609.816 95.8161 614.181 94.948C618.545 94.0798 623.069 94.5254 627.181 96.2283C631.292 97.9313 634.806 100.815 637.278 104.515C639.751 108.215 641.07 112.566 641.07 117.016C641.064 122.981 638.691 128.7 634.473 132.918C630.255 137.136 624.536 139.509 618.57 139.516Z" fill="#7096D1"/>
<path d="M617.07 124.016C616.672 124.016 616.291 123.858 616.01 123.577L607.51 115.077C607.228 114.796 607.07 114.414 607.07 114.016C607.07 113.618 607.228 113.237 607.51 112.956C607.791 112.674 608.173 112.516 608.57 112.516C608.968 112.516 609.35 112.674 609.631 112.956L617.07 120.395L631.864 105.601C632.145 105.321 632.527 105.164 632.924 105.164C633.321 105.164 633.702 105.322 633.983 105.603C634.264 105.884 634.422 106.265 634.422 106.662C634.423 107.06 634.265 107.441 633.985 107.722L618.131 123.577C617.85 123.858 617.468 124.016 617.07 124.016Z" fill="#FFF9F0"/>
<path d="M230 159C229.735 159 229.48 158.895 229.293 158.707C229.105 158.52 229 158.265 229 158V46C229 45.7348 229.105 45.4804 229.293 45.2929C229.48 45.1054 229.735 45 230 45C230.265 45 230.52 45.1054 230.707 45.2929C230.895 45.4804 231 45.7348 231 46V158C231 158.265 230.895 158.52 230.707 158.707C230.52 158.895 230.265 159 230 159Z" fill="#090814"/>
<path d="M159.463 176.381C157.78 176.381 156.166 177.049 154.976 178.239C153.786 179.43 153.117 181.044 153.117 182.727C153.117 184.41 153.786 186.024 154.976 187.214C156.166 188.404 157.78 189.072 159.463 189.072H300.562C302.243 189.069 303.855 188.399 305.042 187.21C306.23 186.02 306.897 184.408 306.897 182.727C306.897 181.046 306.23 179.433 305.042 178.243C303.855 177.054 302.243 176.384 300.562 176.381H159.463Z" fill="#FFF9F0"/>
<path d="M197.297 206.453C196.463 206.451 195.638 206.614 194.867 206.931C194.097 207.248 193.396 207.714 192.806 208.302C192.215 208.89 191.746 209.589 191.426 210.358C191.105 211.127 190.939 211.952 190.938 212.785C190.936 213.619 191.098 214.444 191.415 215.215C191.733 215.985 192.199 216.686 192.787 217.276C193.375 217.867 194.073 218.336 194.842 218.656C195.612 218.977 196.436 219.143 197.27 219.144H262.728C264.411 219.144 266.025 218.476 267.215 217.286C268.405 216.096 269.074 214.482 269.074 212.799C269.074 211.116 268.405 209.502 267.215 208.312C266.025 207.122 264.411 206.453 262.728 206.453H197.297Z" fill="#FFF9F0"/>
<path d="M364.463 176.381C362.78 176.381 361.166 177.049 359.976 178.239C358.786 179.43 358.117 181.044 358.117 182.727C358.117 184.41 358.786 186.024 359.976 187.214C361.166 188.404 362.78 189.072 364.463 189.072H505.562C507.243 189.069 508.855 188.399 510.042 187.21C511.23 186.02 511.897 184.408 511.897 182.727C511.897 181.046 511.23 179.433 510.042 178.243C508.855 177.054 507.243 176.384 505.562 176.381H364.463Z" fill="#FFF9F0"/>
<path d="M402.297 206.453C401.463 206.451 400.638 206.614 399.867 206.931C399.097 207.248 398.396 207.714 397.806 208.302C397.215 208.89 396.746 209.589 396.426 210.358C396.105 211.127 395.939 211.952 395.938 212.785C395.936 213.619 396.098 214.444 396.415 215.215C396.733 215.985 397.199 216.686 397.787 217.276C398.375 217.867 399.073 218.336 399.842 218.656C400.612 218.977 401.436 219.143 402.27 219.144H467.728C469.411 219.144 471.025 218.476 472.215 217.286C473.405 216.096 474.074 214.482 474.074 212.799C474.074 211.116 473.405 209.502 472.215 208.312C471.025 207.122 469.411 206.453 467.728 206.453H402.297Z" fill="#FFF9F0"/>
<path d="M435 159C434.735 159 434.48 158.895 434.293 158.707C434.105 158.52 434 158.265 434 158V46C434 45.7348 434.105 45.4804 434.293 45.2929C434.48 45.1054 434.735 45 435 45C435.265 45 435.52 45.1054 435.707 45.2929C435.895 45.4804 436 45.7348 436 46V158C436 158.265 435.895 158.52 435.707 158.707C435.52 158.895 435.265 159 435 159Z" fill="#090814"/>
</svg>
